# xmcd
#
# Track frame offsets: 
#        150
#        21060
#        38551
#        58129
#        76906
#        95305
#        116179
#        134792
#        147723
#        161586
#        183495
#        202229
#        221078
#        241740
#        261405
#        287951
#        308757
#
# Disc length: 4395 seconds
#
# Revision: 2
# Processed by: cddbd v1.5.1PL0 Copyright (c) Steve Scherf et al.
# Submitted via: ExactAudioCopy v0.95b1
#
DISCID=0a112911
DTITLE=Various Artist - La Fiesta De Salsa cd2
DYEAR=1999
DGENRE=Salsa
TTITLE0=Puente - Cuando Te Vea
TTITLE1=Calzado - Kikiriki
TTITLE2=Morello and Arce - Corazón Salvaje
TTITLE3=Cano - Hijo De La Luna
TTITLE4=Guerra - Reina Mia
TTITLE5=Pupo - Soy Antilliana
TTITLE6=Flores - Escucha Primo
TTITLE7=Alberti - Compadre Pedro Juan
TTITLE8=Mili - Yerbero Moderno
TTITLE9=Daniel - Me Canse De Ser
TTITLE10=Guerra - Burbujas De Amor
TTITLE11=Montoro and Harris Di Carlos Max - Dime La Verdad
TTITLE12=Rosa and Child and Escobar - La Copa De La Vida
TTITLE13=Sandino and Loewy - Mar De Amores
TTITLE14=Sanz - Corazón Partido
TTITLE15=Valenzuela and Galetto - Amarte Asi
TTITLE16=Verena - Caballero Y Damas
EXTD=YEAR: 1999
EXTT0=
EXTT1=
EXTT2=
EXTT3=
EXTT4=
EXTT5=
EXTT6=
EXTT7=
EXTT8=
EXTT9=
EXTT10=
EXTT11=
EXTT12=
EXTT13=
EXTT14=
EXTT15=
EXTT16=
PLAYORDER=
